<?xml version="1.0" encoding="utf-8"?>
<!-- Generator: Adobe Illustrator 22.0.1, SVG Export Plug-In . SVG Version: 6.00 Build 0)  -->
<svg version="1.1" id="Capa_1" xmlns="http://www.w3.org/2000/svg" xmlns:xlink="http://www.w3.org/1999/xlink" x="0px" y="0px"
	 viewBox="0 0 137.2 137.2" style="enable-background:new 0 0 137.2 137.2;" xml:space="preserve">
<style type="text/css">
	.st0{fill:#666666;}
</style>
<g>
	<g>
		<path class="st0" d="M124.9,77.4l0.9-0.6c1.7-1.2,2.1-3.5,0.9-5.2s-3.5-2.1-5.2-0.9c-58,40.6-100.2,2-102,0.3
			c-1.5-1.4-3.9-1.3-5.2,0.2c-1.4,1.5-1.3,3.8,0.1,5.2c0.1,0.1,1.4,1.3,3.8,3.1l-7.4,12.3c-1.1,1.7-0.5,4,1.2,5.1
			c0.6,0.4,1.3,0.5,1.9,0.5c1.2,0,2.5-0.6,3.2-1.8l7.3-12c4.1,2.5,9.3,5.2,15.5,7.5l-3.6,12c-0.6,2,0.5,4,2.5,4.6l1.1,0.2
			c1.6,0,3.1-1,3.5-2.6L47,93.5c5.7,1.6,12.2,2.6,19.1,2.9v11.9c0,2.1,1.7,3.7,3.7,3.7c2.1,0,3.7-1.7,3.7-3.7v-12
			C79.6,96,86,94.9,92.7,93l4.6,12c0.6,1.5,2,2.4,3.5,2.4l1.3-0.2c1.9-0.7,2.9-2.9,2.2-4.8l-4.4-11.7c6.1-2.3,12.4-5.2,18.9-9.2l6,8
			c0.7,1,1.8,1.5,3,1.5c0.8,0,1.6-0.2,2.2-0.7c1.6-1.2,2-3.6,0.8-5.2L124.9,77.4z"/>
		<path class="st0" d="M137,48.4c0,0-1.5-2.1-4.6-5c-1.5-1.5-3.5-3-5.9-4.8c-2.4-1.6-5.1-3.5-8.2-5.1c-3.1-1.7-6.6-3.2-10.4-4.5
			c-3.8-1.5-7.9-2.4-12.2-3.1c-4.3-0.5-8.9-0.6-13.5-0.4c-4.6,0.4-9.3,0.4-13.9,1c-4.6,0.4-9.2,0.8-13.7,1.7
			c-2.3,0.4-4.5,0.7-6.7,1.2c-2.2,0.6-4.3,1.2-6.4,1.8c-4.2,1-8.1,2.4-11.8,4c-3.7,1.4-7.1,2.8-10.1,4.5c-3,1.6-5.8,3-8.2,4.3
			c-2.3,1.6-4.3,2.9-5.9,4c-3.2,2.2-5,3.5-5,3.5L0,52.6c0.2,0.6,0.8,0.9,1.4,0.7h0.1c0,0,2.1-0.7,5.7-1.9c1.8-0.6,4-1.4,6.4-2.3
			c2.5-0.7,5.5-1.4,8.6-2.1c3.1-0.9,6.5-1.4,10.1-1.8c1.8-0.3,3.6-0.5,5.5-0.8c1.9-0.2,3.9-0.3,5.8-0.4c2-0.1,4-0.2,6-0.4
			c2,0,4.1,0,6.1,0c4.1-0.1,8.3,0.2,12.4,0.6c8.3,0.6,16.3,3.3,23.9,4.6c7.6,1.3,14.9,1.6,21.3,2c6.5,0.2,12,0.3,16.1,0.1
			c4.1-0.1,6.6-0.4,6.6-0.4l0.6-0.2C137.2,49.8,137.4,49,137,48.4z"/>
	</g>
</g>
</svg>
